<?xml version="1.0" encoding="UTF-8" standalone="no"?>
<svg
   xmlns:dc="http://purl.org/dc/elements/1.1/"
   xmlns:cc="http://creativecommons.org/ns#"
   xmlns:rdf="http://www.w3.org/1999/02/22-rdf-syntax-ns#"
   xmlns:svg="http://www.w3.org/2000/svg"
   xmlns="http://www.w3.org/2000/svg"
   xmlns:sodipodi="http://sodipodi.sourceforge.net/DTD/sodipodi-0.dtd"
   xmlns:inkscape="http://www.inkscape.org/namespaces/inkscape"
   width="1280"
   height="288"
   fill="none"
   version="1.1"
   id="svg1759"
   sodipodi:docname="seattle.svg"
   inkscape:version="0.92.3 (2405546, 2018-03-11)">
  <metadata
     id="metadata1765">
    <rdf:RDF>
      <cc:Work
         rdf:about="">
        <dc:format>image/svg+xml</dc:format>
        <dc:type
           rdf:resource="http://purl.org/dc/dcmitype/StillImage" />
      </cc:Work>
    </rdf:RDF>
  </metadata>
  <defs
     id="defs1763" />
  <sodipodi:namedview
     pagecolor="#ffffff"
     bordercolor="#666666"
     borderopacity="1"
     objecttolerance="10"
     gridtolerance="10"
     guidetolerance="10"
     inkscape:pageopacity="0"
     inkscape:pageshadow="2"
     inkscape:window-width="1366"
     inkscape:window-height="711"
     id="namedview1761"
     showgrid="false"
     inkscape:zoom="0.47453494"
     inkscape:cx="703.09497"
     inkscape:cy="128.12898"
     inkscape:window-x="0"
     inkscape:window-y="31"
     inkscape:window-maximized="1"
     inkscape:current-layer="svg1759" />
  <path
     d="M-68.186 86.787c0-7.272 5.896-13.168 13.168-13.168h69.311c5.01 0 9.665 2.58 12.32 6.828a13.49 13.49 0 0011.439 6.34h8.16a6.584 6.584 0 110 13.168h-101.23c-7.272 0-13.168-5.895-13.168-13.168zM34 29.465c0-9.319 7.554-16.872 16.872-16.872H129.5c6.94 0 13.18 4.225 15.758 10.668l.631 1.578a13.25 13.25 0 0012.302 8.329h6.666a6.584 6.584 0 016.584 6.584 6.584 6.584 0 01-6.584 6.584H50.871C41.555 46.336 34 38.782 34 29.465zM1210.04 72.424c0-7.272 5.9-13.168 13.17-13.168h36.39c5.01 0 9.67 2.58 12.32 6.828a13.499 13.499 0 0011.44 6.34h8.16c3.64 0 6.59 2.948 6.59 6.585a6.587 6.587 0 01-6.59 6.584h-68.31c-7.27 0-13.17-5.896-13.17-13.169zM1143.38 13.168c0-7.272 5.9-13.168 13.17-13.168h36.39c5.01 0 9.66 2.58 12.32 6.828a13.486 13.486 0 0011.44 6.34h8.16a6.585 6.585 0 010 13.168h-68.31c-7.27 0-13.17-5.895-13.17-13.168z"
     fill="#EFF4FF"
     id="path1555" />
  <path
     d="M 1280,188.457 H 0 v 99.47463 h 1280 z"
     id="path1557"
     inkscape:connector-curvature="0"
     style="fill:#f5f9fc;stroke-width:1.09176052" />
  <path
     d="M1280 188.457H0v4.096h1280v-4.096z"
     fill="#fff"
     id="path1559" />
  <path
     fill-rule="evenodd"
     clip-rule="evenodd"
     d="M175.504 176.073c13.573 0 32.768-.475 32.768-16.31 0-15.835-11.003-31.625-32.768-31.625s-32.768 15.79-32.768 31.625 19.195 16.31 32.768 16.31z"
     fill="#02996B"
     id="path1561" />
  <path
     fill-rule="evenodd"
     clip-rule="evenodd"
     d="M277.196 100.233l48.402 39.68h-96.805l4.717-39.68h43.686z"
     fill="#B2C9FF"
     id="path1563" />
  <path
     d="M281.912 139.913h-96.805v53.568h96.805v-53.568z"
     fill="#EFF4FF"
     id="path1565" />
  <path
     d="M325.598 139.913h-43.686v53.568h43.686v-53.568z"
     fill="#CFDEFF"
     id="path1567" />
  <path
     fill-rule="evenodd"
     clip-rule="evenodd"
     d="M233.51 157.769c5.346 0 9.68 4.33 9.68 9.672v26.04h-19.361v-26.04c0-5.342 4.334-9.672 9.681-9.672z"
     fill="#6A97FF"
     id="path1569" />
  <path
     d="M215.886 157.769H193.05v27.776h22.836v-27.776zM273.969 157.769h-22.836v27.776h22.836v-27.776z"
     fill="#6A97FF"
     id="path1571" />
  <path
     d="M315.173 157.769h-22.836v27.776h22.836v-27.776z"
     fill="#4D78DE"
     id="path1573" />
  <path
     fill-rule="evenodd"
     clip-rule="evenodd"
     d="M233.51 100.233l48.402 39.68h-96.805l48.403-39.68z"
     fill="#EFF4FF"
     id="path1575" />
  <path
     d="M233.758 142.393c4.386 0 7.943-3.553 7.943-7.936s-3.557-7.936-7.943-7.936c-4.387 0-7.943 3.553-7.943 7.936s3.556 7.936 7.943 7.936z"
     fill="#6A97FF"
     id="path1577" />
  <path
     d="M331.64 106.953h-.512c-6.787 0-12.288 5.501-12.288 12.288v48.64c0 6.786 5.501 12.288 12.288 12.288h.512c6.786 0 12.288-5.502 12.288-12.288v-48.64c0-6.787-5.502-12.288-12.288-12.288z"
     fill="#02996B"
     id="path1579" />
  <path
     d="M332.664 143.305h-2.048v49.152h2.048v-49.152z"
     fill="#93E4AE"
     id="path1581" />
  <path
     fill-rule="evenodd"
     clip-rule="evenodd"
     d="M155.536 102.857l27.136 78.336H128.4l27.136-78.336z"
     fill="#93E4AE"
     id="path1583" />
  <path
     d="M157.584 149.993h-3.072v42.46h3.072v-42.46z"
     fill="#02996B"
     id="path1585" />
  <path
     fill-rule="evenodd"
     clip-rule="evenodd"
     d="M184.208 173.513a6.144 6.144 0 016.127 5.685 6.144 6.144 0 018.662 6.437 6.144 6.144 0 019.081 6.822H169.16a8.192 8.192 0 019.019-11.61 6.144 6.144 0 016.029-7.334z"
     fill="#02996B"
     id="path1587" />
  <path
     d="M576 53.593h-9v140h9v-140z"
     fill="#6A97FF"
     id="path1589" />
  <path
     d="M571 80.593H343v113h228v-113z"
     fill="#CFDEFF"
     id="path1591" />
  <path
     fill="#EFF4FF"
     d="M576 82.593h124v42H576z"
     id="path1593" />
  <path
     d="M749 78.593h-53v114h53v-114z"
     fill="#6A97FF"
     id="path1595" />
  <path
     fill-rule="evenodd"
     clip-rule="evenodd"
     d="M734.608 99.273a8.192 8.192 0 018.192 8.192v16.384h-16.384v-16.384a8.192 8.192 0 018.192-8.192z"
     fill="#4D78DE"
     id="path1597" />
  <path
     d="M753.04 123.849h-53.248v4.096h53.248v-4.096z"
     fill="#6A97FF"
     id="path1599" />
  <path
     fill-rule="evenodd"
     clip-rule="evenodd"
     d="M381.208 143.817c11.311 0 20.48 9.169 20.48 20.48v29.184h-40.96v-29.184c0-11.311 9.169-20.48 20.48-20.48zM430.36 143.817c11.311 0 20.48 9.169 20.48 20.48v29.184h-40.96v-29.184c0-11.311 9.169-20.48 20.48-20.48z"
     fill="#6A97FF"
     id="path1601" />
  <path
     fill-rule="evenodd"
     clip-rule="evenodd"
     d="M368.92 99.273a8.192 8.192 0 018.192 8.192v16.384h-16.384v-16.384a8.192 8.192 0 018.192-8.192z"
     fill="#fff"
     id="path1603" />
  <path
     fill-rule="evenodd"
     clip-rule="evenodd"
     d="M418.072 99.273a8.192 8.192 0 018.192 8.192v16.384H409.88v-16.384a8.192 8.192 0 018.192-8.192zM393.496 99.273a8.192 8.192 0 018.192 8.192v16.384h-16.384v-16.384a8.192 8.192 0 018.192-8.192zM442.648 99.273a8.192 8.192 0 018.192 8.192v16.384h-16.384v-16.384a8.192 8.192 0 018.192-8.192z"
     fill="#6A97FF"
     id="path1605" />
  <path
     d="M468.368 78.793H343.44v4.096h124.928v-4.096zM468.368 123.849H343.44v4.096h124.928v-4.096z"
     fill="#B2C9FF"
     id="path1607" />
  <path
     fill-rule="evenodd"
     clip-rule="evenodd"
     d="M722.32 143.817c7.635 0 13.824 6.189 13.824 13.824v35.84h-27.648v-35.84c0-7.635 6.189-13.824 13.824-13.824z"
     fill="#EFF4FF"
     id="path1609" />
  <path
     fill-rule="evenodd"
     clip-rule="evenodd"
     d="M494.992 19.285l43.52-10.636v58.88h-43.52V19.285z"
     fill="#CFDEFF"
     id="path1611" />
  <path
     d="M548.24 8.649h-9.728v58.88h9.728V8.649z"
     fill="#6A97FF"
     id="path1613" />
  <path
     fill-rule="evenodd"
     clip-rule="evenodd"
     d="M705.936 63.433c5.655 0 10.24 4.584 10.24 10.24v5.12h-20.48v-5.12c0-5.656 4.585-10.24 10.24-10.24z"
     fill="#B2C9FF"
     id="path1615" />
  <path
     fill-rule="evenodd"
     clip-rule="evenodd"
     d="M517.52 29.129a8.192 8.192 0 018.192 8.192v16.384h-16.384V37.32a8.192 8.192 0 018.192-8.192z"
     fill="#6A97FF"
     id="path1617" />
  <path
     fill-rule="evenodd"
     clip-rule="evenodd"
     d="M737.168 63.433c5.655 0 10.24 4.584 10.24 10.24v5.12h-20.48v-5.12c0-5.656 4.585-10.24 10.24-10.24z"
     fill="#B2C9FF"
     id="path1619" />
  <path
     d="M695.696 78.793H570.768v4.096h124.928v-4.096z"
     fill="#B2C9FF"
     id="path1621" />
  <path
     d="M566.672 53.705h-98.304v140.288h98.304V53.705z"
     fill="#EFF4FF"
     id="path1623" />
  <path
     d="M566.672 67.53h-98.304V70.6h98.304V67.53zM695.696 123.849H570.768v4.096h124.928v-4.096zM570.768 70.601H558.48v122.88h12.288V70.601z"
     fill="#B2C9FF"
     id="path1625" />
  <path
     d="M571 53.593h-5v140h5v-140z"
     fill="#6A97FF"
     id="path1627" />
  <path
     fill-rule="evenodd"
     clip-rule="evenodd"
     d="M519.568 144.329c10.18 0 18.432 8.252 18.432 18.432v30.72h-36.864v-30.72c0-10.18 8.252-18.432 18.432-18.432z"
     fill="#6A97FF"
     id="path1629" />
  <path
     d="M480.656 70.601h-12.288v122.88h12.288V70.601zM611 82.593h-15v42h15v-42zM586 82.593h-15v42h15v-42zM685 82.593h-15v42h15v-42zM635 82.593h-14v42h14v-42zM660 82.593h-14v42h14v-42z"
     fill="#B2C9FF"
     id="path1631" />
  <path
     fill-rule="evenodd"
     clip-rule="evenodd"
     d="M497.04 82.889a8.192 8.192 0 018.192 8.192v32.768h-16.384V91.081a8.192 8.192 0 018.192-8.192zM519.568 82.889a8.192 8.192 0 018.192 8.192v32.768h-16.384V91.081a8.192 8.192 0 018.192-8.192zM542.096 82.889a8.192 8.192 0 018.192 8.192v32.768h-16.384V91.081a8.192 8.192 0 018.192-8.192z"
     fill="#6A97FF"
     id="path1633" />
  <path
     d="M566 119.593h-98v12h98v-12z"
     fill="#CFDEFF"
     id="path1635" />
  <path
     fill-rule="evenodd"
     clip-rule="evenodd"
     d="M899.318 2.505l61.33 33.28h-18.539L881.04 2.505h18.278z"
     fill="#6A97FF"
     id="path1637" />
  <path
     d="M975 23.593h-42v169h42v-169z"
     fill="#6A97FF"
     id="path1639" />
  <path
     d="M1060 49.593H707v143h353v-143z"
     fill="#CFDEFF"
     id="path1641" />
  <path
     d="M1113 46.593h-53v146h53v-146z"
     fill="#6A97FF"
     id="path1643" />
  <path
     fill-rule="evenodd"
     clip-rule="evenodd"
     d="M1074.06 55.241c4.53 0 8.2 3.668 8.2 8.192v16.384h-16.39V63.433a8.193 8.193 0 018.19-8.192zM1074.06 99.273c4.53 0 8.2 3.668 8.2 8.192v16.384h-16.39v-16.384a8.193 8.193 0 018.19-8.192zM1098.64 55.241c4.52 0 8.19 3.668 8.19 8.192v16.384h-16.38V63.433a8.193 8.193 0 018.19-8.192zM1098.64 99.273c4.52 0 8.19 3.668 8.19 8.192v16.384h-16.38v-16.384a8.193 8.193 0 018.19-8.192z"
     fill="#4D78DE"
     id="path1645" />
  <path
     d="M736.144 144.329H719.76v32.768h16.384v-32.768z"
     fill="#6A97FF"
     id="path1647" />
  <path
     fill-rule="evenodd"
     clip-rule="evenodd"
     d="M881.04 2.505l61.44 33.28H819.6l61.44-33.28z"
     fill="#B2C9FF"
     id="path1649" />
  <path
     fill-rule="evenodd"
     clip-rule="evenodd"
     d="M881.04 11.72l31.744 16.897h-63.488L881.04 11.72z"
     fill="#EFF4FF"
     id="path1651" />
  <path
     d="M785.296 144.329h-40.96v32.768h40.96v-32.768z"
     fill="#6A97FF"
     id="path1653" />
  <path
     fill-rule="evenodd"
     clip-rule="evenodd"
     d="M727.952 55.241a8.192 8.192 0 018.192 8.192v16.384H719.76V63.433a8.192 8.192 0 018.192-8.192z"
     fill="#6A97FF"
     id="path1655" />
  <path
     fill-rule="evenodd"
     clip-rule="evenodd"
     d="M727.952 99.273a8.192 8.192 0 018.192 8.192v16.384H719.76v-16.384a8.192 8.192 0 018.192-8.192zM777.104 55.241a8.192 8.192 0 018.192 8.192v16.384h-16.384V63.433a8.192 8.192 0 018.192-8.192z"
     fill="#fff"
     id="path1657" />
  <path
     fill-rule="evenodd"
     clip-rule="evenodd"
     d="M777.104 99.273a8.192 8.192 0 018.192 8.192v16.384h-16.384v-16.384a8.192 8.192 0 018.192-8.192zM752.528 55.241a8.192 8.192 0 018.192 8.192v16.384h-16.384V63.433a8.192 8.192 0 018.192-8.192zM752.528 99.273a8.192 8.192 0 018.192 8.192v16.384h-16.384v-16.384a8.192 8.192 0 018.192-8.192z"
     fill="#6A97FF"
     id="path1659" />
  <path
     d="M832 78.593H707v4h125v-4zM832.4 123.849H707.472v4.096H832.4v-4.096z"
     fill="#B2C9FF"
     id="path1661" />
  <path
     d="M1020.62 144.329h-40.956v32.768h40.956v-32.768zM1045.2 144.329h-16.38v32.768h16.38v-32.768z"
     fill="#6A97FF"
     id="path1663" />
  <path
     fill-rule="evenodd"
     clip-rule="evenodd"
     d="M1012.43 55.241c4.53 0 8.19 3.668 8.19 8.192v16.384h-16.38V63.433a8.193 8.193 0 018.19-8.192z"
     fill="#fff"
     id="path1665" />
  <path
     fill-rule="evenodd"
     clip-rule="evenodd"
     d="M1012.43 99.273c4.53 0 8.19 3.668 8.19 8.192v16.384h-16.38v-16.384a8.193 8.193 0 018.19-8.192zM987.856 55.241a8.192 8.192 0 018.192 8.192v16.384h-16.384V63.433a8.192 8.192 0 018.192-8.192zM987.856 99.273a8.192 8.192 0 018.192 8.192v16.384h-16.384v-16.384a8.192 8.192 0 018.192-8.192zM1037.01 55.241c4.52 0 8.19 3.668 8.19 8.192v16.384h-16.38V63.433a8.187 8.187 0 018.19-8.192zM1037.01 99.273c4.52 0 8.19 3.668 8.19 8.192v16.384h-16.38v-16.384a8.187 8.187 0 018.19-8.192z"
     fill="#6A97FF"
     id="path1667" />
  <path
     d="M1059.73 78.793H934.8v4.096h124.93v-4.096z"
     fill="#B2C9FF"
     id="path1669" />
  <path
     d="M975 23.593H811v4h164v-4z"
     fill="#6A97FF"
     id="path1671" />
  <path
     d="M933 23.593h-95v170h95v-170z"
     fill="#CFDEFF"
     id="path1673" />
  <path
     d="M1059.73 123.849H934.8v4.096h124.93v-4.096z"
     fill="#B2C9FF"
     id="path1675" />
  <path
     d="M934.8 119.753h-8.192v12.288h8.192v-12.288z"
     fill="#6A97FF"
     id="path1677" />
  <path
     fill-rule="evenodd"
     clip-rule="evenodd"
     d="M883.6 141.769c10.18 0 18.432 8.252 18.432 18.432v33.28h-36.864v-33.28c0-10.18 8.253-18.432 18.432-18.432z"
     fill="#6A97FF"
     id="path1679" />
  <path
     d="M844.688 23.497h-41.472V193.48h41.472V23.497zM964.496 23.497h-41.472V193.48h41.472V23.497z"
     fill="#EFF4FF"
     id="path1681" />
  <path
     fill-rule="evenodd"
     clip-rule="evenodd"
     d="M824.16 79.217a8.192 8.192 0 018.192 8.192v16.384h-16.384V87.409a8.192 8.192 0 018.192-8.192zM824.16 124.273a8.192 8.192 0 018.192 8.192v16.384h-16.384v-16.384a8.192 8.192 0 018.192-8.192zM943.456 79.217a8.192 8.192 0 018.192 8.192v16.384h-16.384V87.409a8.192 8.192 0 018.192-8.192zM943.456 124.273a8.192 8.192 0 018.192 8.192v16.384h-16.384v-16.384a8.192 8.192 0 018.192-8.192zM861.072 60.873a5.632 5.632 0 015.632 5.632v18.944H855.44V66.505a5.632 5.632 0 015.632-5.632zM861.072 91.081a5.632 5.632 0 015.632 5.632v18.944H855.44V96.713a5.632 5.632 0 015.632-5.632z"
     fill="#6A97FF"
     id="path1683" />
  <path
     d="M965 23.593H803v4h162v-4z"
     fill="#B2C9FF"
     id="path1685" />
  <path
     fill-rule="evenodd"
     clip-rule="evenodd"
     d="M883.6 60.873a5.632 5.632 0 015.632 5.632v18.944h-11.264V66.505a5.632 5.632 0 015.632-5.632zM883.6 91.081a5.632 5.632 0 015.632 5.632v18.944h-11.264V96.713a5.632 5.632 0 015.632-5.632zM906.128 60.873a5.632 5.632 0 015.632 5.632v18.944h-11.264V66.505a5.632 5.632 0 015.632-5.632z"
     fill="#6A97FF"
     id="path1687" />
  <path
     d="M1060 46.593H707v5h353v-5z"
     fill="#B2C9FF"
     id="path1689" />
  <path
     fill-rule="evenodd"
     clip-rule="evenodd"
     d="M906.128 91.081a5.632 5.632 0 015.632 5.632v18.944h-11.264V96.713a5.632 5.632 0 015.632-5.632z"
     fill="#6A97FF"
     id="path1691" />
  <path
     d="M1129.8 107.593h-.51c-6.79 0-12.29 5.501-12.29 12.288v48.64c0 6.786 5.5 12.288 12.29 12.288h.51c6.79 0 12.29-5.502 12.29-12.288v-48.64c0-6.787-5.5-12.288-12.29-12.288z"
     fill="#02996B"
     id="path1693" />
  <path
     d="M1130.82 143.945h-2.04v48.15h2.04v-48.15zM1119.63 135.113c0-6.787-5.5-12.288-12.29-12.288-6.78 0-12.28 5.501-12.28 12.288v32.768c0 6.786 5.5 12.288 12.28 12.288 6.79 0 12.29-5.502 12.29-12.288v-32.768z"
     fill="#93E4AE"
     id="path1695" />
  <path
     d="M1108.88 143.305h-2.05v49.152h2.05v-49.152z"
     fill="#02996B"
     id="path1697" />
  <path
     d="m 1032.12,214.577 h 124.42 c 2.82,0 5.12,2.292 5.12,5.12 v 52.736 c 0,0.848 -0.69,1.536 -1.54,1.536 h -131.58 c -0.85,0 -1.54,-0.688 -1.54,-1.536 v -52.736 c 0,-2.828 2.29,-5.12 5.12,-5.12 z"
     id="path1699"
     inkscape:connector-curvature="0"
     style="clip-rule:evenodd;fill:#cfdeff;fill-rule:evenodd" />
  <path
     d="m 1063.35,254.513 h 10.24 c 5.37,0 9.73,4.355 9.73,9.728 v 8.192 c 0,0.848 -0.69,1.536 -1.54,1.536 h -26.62 c -0.85,0 -1.54,-0.688 -1.54,-1.536 v -8.192 c 0,-5.373 4.36,-9.728 9.73,-9.728 z"
     id="path1701"
     inkscape:connector-curvature="0"
     style="clip-rule:evenodd;fill:#b2c9ff;fill-rule:evenodd" />
  <path
     d="m 1065.4,261.169 h 6.14 c 4.25,0 7.68,3.438 7.68,7.68 v 5.12 h -21.5 v -5.12 a 7.68,7.68 0 0 1 7.68,-7.68 z"
     id="path1703"
     inkscape:connector-curvature="0"
     style="clip-rule:evenodd;fill:#4d78de;fill-rule:evenodd" />
  <path
     d="m 1068.73,283.185 c 5.23,0 9.47,-4.241 9.47,-9.472 0,-5.232 -4.24,-9.472 -9.47,-9.472 -5.23,0 -9.47,4.24 -9.47,9.472 0,5.231 4.24,9.472 9.47,9.472 z"
     id="path1705"
     inkscape:connector-curvature="0"
     style="fill:#4d78de" />
  <path
     d="m 1157.56,239.024 25.34,13.021 a 6.152,6.152 0 0 1 3.33,5.464 v 16.46 h -28.67 z"
     id="path1707"
     inkscape:connector-curvature="0"
     style="clip-rule:evenodd;fill:#cfdeff;fill-rule:evenodd" />
  <path
     d="m 1161.66,254.513 h 14.84 c 5.38,0 9.73,4.355 9.73,9.728 v 8.192 c 0,0.848 -0.69,1.536 -1.53,1.536 h -26.63 a 1.53,1.53 0 0 1 -1.53,-1.536 v -12.8 c 0,-2.828 2.29,-5.12 5.12,-5.12 z"
     id="path1709"
     inkscape:connector-curvature="0"
     style="clip-rule:evenodd;fill:#b2c9ff;fill-rule:evenodd" />
  <path
     d="m 1168.31,261.169 h 6.15 a 7.68,7.68 0 0 1 7.68,7.68 v 5.12 h -21.51 v -5.12 a 7.68,7.68 0 0 1 7.68,-7.68 z"
     id="path1711"
     inkscape:connector-curvature="0"
     style="clip-rule:evenodd;fill:#4d78de;fill-rule:evenodd" />
  <path
     d="m 1068.73,278.577 a 4.8650026,4.8650026 0 1 0 -0.01,-9.73 4.8650026,4.8650026 0 0 0 0.01,9.73 z"
     id="path1713"
     inkscape:connector-curvature="0"
     style="fill:#eff4ff" />
  <path
     d="m 1171.64,283.185 c 5.23,0 9.47,-4.241 9.47,-9.472 0,-5.232 -4.24,-9.472 -9.47,-9.472 -5.23,0 -9.47,4.24 -9.47,9.472 0,5.231 4.24,9.472 9.47,9.472 z"
     id="path1715"
     inkscape:connector-curvature="0"
     style="fill:#4d78de" />
  <path
     d="m 1171.64,278.577 c 2.69,0 4.86,-2.178 4.86,-4.864 a 4.858,4.858 0 0 0 -4.86,-4.864 4.858,4.858 0 0 0 -4.86,4.864 4.858,4.858 0 0 0 4.86,4.864 z"
     id="path1717"
     inkscape:connector-curvature="0"
     style="fill:#eff4ff" />
  <path
     d="m 1153.98,225.841 h -17.92 v 45.056 h 17.92 z m -22.53,0 h -16.9 v 13.312 h 16.9 z m 30.21,0 h -4.1 v 15.36 h 4.1 z m -48.64,0 h -16.9 v 13.312 h 16.9 z m -18.44,0 h -16.89 v 13.312 h 16.89 z m -18.43,0 h -16.89 v 13.312 h 16.89 z m -18.43,0 h -16.9 v 13.312 h 16.9 z m -18.43,0 H 1027 v 13.312 h 12.29 z m 96.77,20.992 H 1027 v 4.608 h 109.06 z"
     id="path1719"
     inkscape:connector-curvature="0"
     style="fill:#6a97ff" />
  <path
     fill-rule="evenodd"
     clip-rule="evenodd"
     d="M581.104 196.929h92.672l25.411 2.384a7.68 7.68 0 016.922 6.859l.714 6.931a2.048 2.048 0 01-2.037 2.258h-121.54a2.048 2.048 0 01-2.048-2.037l-.094-16.395z"
     fill="#6A97FF"
     id="path1721" />
  <path
     fill-rule="evenodd"
     clip-rule="evenodd"
     d="M585.738 182.593h75.795c.307 0 .597.137.792.374l11.451 13.962h-92.672l2.629-12.703a2.047 2.047 0 012.005-1.633z"
     fill="#EFF4FF"
     id="path1723" />
  <path
     fill-rule="evenodd"
     clip-rule="evenodd"
     d="M660.823 184.641c.293 0 .566.075.785.206.146.086 3.519 4.114 10.12 12.082h-24.576v-12.288h13.671zm-16.231 12.288h-19.428a1.535 1.535 0 01-1.468-1.986l2.927-9.565c.073-.217.237-.401.456-.531.219-.131.492-.206.785-.206h16.728v12.288zM585.206 196.929c-.243 0-.47-.076-.652-.206a.986.986 0 01-.378-.532l2.099-10.32a1.535 1.535 0 011.505-1.23h35.64a.512.512 0 01.49.661l-3.327 10.889a.982.982 0 01-.379.532 1.12 1.12 0 01-.651.206h-34.347z"
     fill="#4D78DE"
     id="path1725" />
  <path
     d="M609.264 223.553a8.192 8.192 0 100-16.385 8.192 8.192 0 000 16.385z"
     fill="#4D78DE"
     id="path1727" />
  <path
     d="M609.264 219.457a4.096 4.096 0 100-8.192 4.096 4.096 0 000 8.192z"
     fill="#EFF4FF"
     id="path1729" />
  <path
     d="M682.48 223.553a8.192 8.192 0 100-16.385 8.192 8.192 0 000 16.385z"
     fill="#4D78DE"
     id="path1731" />
  <path
     d="M682.48 219.457a4.096 4.096 0 100-8.192 4.096 4.096 0 000 8.192z"
     fill="#EFF4FF"
     id="path1733" />
  <path
     fill-rule="evenodd"
     clip-rule="evenodd"
     d="M148.056 251.928H251.22a4.096 4.096 0 004.096-4.096v-6.656c0-5.938-4.814-10.752-10.752-10.752h-99.516a2.048 2.048 0 00-2.026 2.347l2.501 16.971a2.56 2.56 0 002.533 2.186z"
     fill="#6A97FF"
     id="path1735" />
  <path
     fill-rule="evenodd"
     clip-rule="evenodd"
     d="M193.795 230.425H224.677l-3.185-12.902a2.559 2.559 0 00-2.485-1.946h-21.73a2.559 2.559 0 00-2.553 2.37l-.929 12.478z"
     fill="#6A97FF"
     id="path1737" />
  <path
     fill-rule="evenodd"
     clip-rule="evenodd"
     d="M157.27 236.569h16.126a9.728 9.728 0 019.728 9.728v7.168a2.56 2.56 0 01-2.56 2.56h-30.55a1.536 1.536 0 01-1.527-1.697l1.145-10.883a7.68 7.68 0 017.638-6.876zM229.055 236.569h19.093a9.728 9.728 0 019.728 9.728v8.192c0 .848-.688 1.536-1.536 1.536h-34.359a1.536 1.536 0 01-1.486-1.927l3.609-13.712a5.119 5.119 0 014.951-3.817z"
     fill="#B2C9FF"
     id="path1739" />
  <path
     fill-rule="evenodd"
     clip-rule="evenodd"
     d="M162.29 243.225h7.01a7.68 7.68 0 017.68 7.68v5.12h-23.04l.724-6.035a7.68 7.68 0 017.626-6.765zM238.932 243.225h6.144a7.68 7.68 0 017.68 7.68v5.12h-21.504v-5.12a7.68 7.68 0 017.68-7.68z"
     fill="#4D78DE"
     id="path1741" />
  <path
     fill-rule="evenodd"
     clip-rule="evenodd"
     d="M224.677 230.425l-2.91-11.776h-4.625l.286 11.069a.935.935 0 00.356.509c.171.125.385.198.613.198h6.28z"
     fill="#B2C9FF"
     id="path1743" />
  <path
     d="M165.716 263.705a8.192 8.192 0 100-16.385 8.192 8.192 0 000 16.385z"
     fill="#4D78DE"
     id="path1745" />
  <path
     d="M165.716 259.609a4.096 4.096 0 100-8.192 4.096 4.096 0 000 8.192z"
     fill="#EFF4FF"
     id="path1747" />
  <path
     d="M242.516 263.705a8.192 8.192 0 100-16.385 8.192 8.192 0 000 16.385z"
     fill="#4D78DE"
     id="path1749" />
  <path
     d="M242.516 259.609a4.096 4.096 0 100-8.192 4.096 4.096 0 000 8.192z"
     fill="#EFF4FF"
     id="path1751" />
  <path
     fill-rule="evenodd"
     clip-rule="evenodd"
     d="M198.911 218.649h15.957c.566 0 1.024.458 1.024 1.024v9.728c0 .565-.458 1.024-1.024 1.024h-16.803a1.024 1.024 0 01-1.02-1.113l.846-9.728a1.024 1.024 0 011.02-.935z"
     fill="#B2C9FF"
     id="path1753" />
  <path
     fill-rule="evenodd"
     clip-rule="evenodd"
     d="M1154.03 173.513c5.66 0 10.24 4.584 10.24 10.24 0 .346-.01.688-.05 1.025l.05-.001c3.4 0 6.15 2.75 6.15 6.144 0 .53-.07 1.045-.2 1.536h-31.75a8.125 8.125 0 01-.82-3.584 8.195 8.195 0 016.56-8.03c1.26-4.238 5.18-7.33 9.82-7.33z"
     fill="#93E4AE"
     id="path1755" />
  <path
     fill-rule="evenodd"
     clip-rule="evenodd"
     d="M1170.03 173.513c5.66 0 10.24 4.584 10.24 10.24 0 .346-.01.688-.05 1.025l.05-.001c3.4 0 6.15 2.75 6.15 6.144 0 .53-.07 1.045-.2 1.536h-31.75a8.125 8.125 0 01-.82-3.584 8.195 8.195 0 016.56-8.03c1.26-4.238 5.18-7.33 9.82-7.33z"
     fill="#02996B"
     id="path1757" />
</svg>
