<?xml version="1.0" encoding="utf-8"?>
<!-- Svg Vector Icons : http://www.onlinewebfonts.com/icon -->
<!DOCTYPE svg PUBLIC "-//W3C//DTD SVG 1.1//EN" "http://www.w3.org/Graphics/SVG/1.1/DTD/svg11.dtd">
<svg version="1.1" xmlns="http://www.w3.org/2000/svg" xmlns:xlink="http://www.w3.org/1999/xlink" x="0px" y="0px" viewBox="0 0 1000 1000" enable-background="new 0 0 1000 1000" xml:space="preserve">
<metadata> Svg Vector Icons : http://www.onlinewebfonts.com/icon </metadata>
<g><g transform="translate(0.000000,511.000000) scale(0.100000,-0.100000)"><path d="M1829,4983.9c-34.5-9.6-88.2-42.2-120.8-72.8c-55.6-51.8-59.4-65.2-59.4-180.2c0-439,249.2-1067.8,601.9-1518.3l103.5-132.3l-90.1-61.3c-358.5-241.5-563.6-651.8-590.4-1177c-7.7-168.7-3.8-260.7,21.1-383.4C1877,567.2,2777.9-193.9,4008.7-494.8c442.8-107.4,623-126.5,1215.4-126.5c571.3,1.9,724.6,17.3,1217.3,116.9c463.9,95.8,1113.8,306.7,1472.2,479.2c107.4,51.7,147.6,82.4,164.9,126.5c32.6,74.8,11.5,174.4-51.8,243.4c-82.4,88.2-157.2,214.7-358.5,596.2c-563.6,1063.9-814.7,1455-1282.5,1982.1c-594.3,670.9-1458.8,1276.7-2024.3,1422.4c-348.9,88.2-715,63.3-993-70.9c-306.7-147.6-577-427.5-715-740c-46-101.6-49.8-105.4-74.8-69c-49.8,70.9-161,331.6-218.5,509.9c-55.6,176.4-113.1,440.9-155.3,732.3c-28.8,191.7-42.2,214.7-139.9,260.7C1976.7,5006.9,1921.1,5010.7,1829,4983.9z M4323,3950.6c414.1-126.5,1058.2-569.3,1564.3-1073.5c517.6-515.7,830.1-975.7,1405.2-2066.5c113.1-214.7,226.2-425.6,253-467.8c26.8-42.2,46-80.5,42.2-84.3c-17.2-17.2-544.4-201.3-724.6-253C6257.3-168.9,5799.1-236,5195.3-236c-425.6,0-657.5,24.9-1019.8,105.4C3029.1,122.4,2170.3,835.5,2072.5,1610c-19.2,153.4,3.8,429.4,47.9,567.4c47.9,147.6,138,304.8,226.2,396.8c74.8,76.7,207,178.3,253,191.7c9.6,3.8,136.1-115,278-262.6c676.7-705.4,1432-1271,2225.6-1669.7c348.9-176.4,832-360.4,1042.8-396.8c88.2-17.3,172.5,42.2,199.4,138c36.4,138-34.5,214.7-258.8,279.9c-63.3,17.3-214.7,70.9-335.5,118.9c-891.4,352.7-1842.2,1012.2-2586,1796.2L2929.4,3019l7.7,95.8c5.7,53.7,30.7,151.4,57.5,218.5c134.2,325.9,398.7,565.5,715,649.9C3845.7,4017.7,4154.4,4002.4,4323,3950.6z"/><path d="M7867.5,1533.3c-47.9-24.9-103.5-113.1-103.5-168.7c0-57.5,38.3-132.3,84.4-162.9c23-13.4,126.5-49.8,232-78.6c632.6-172.5,1178.9-450.5,1349.6-692c193.6-268.4,23-538.7-506.1-809C8320-684.6,7440-891.6,6259.2-1008.6c-496.5-47.9-2014.8-47.9-2511.3,0C2225.9-859.1,1121.7-531.2,665.4-96.1C330,224,500.6,532.7,1194.5,864.3c109.3,51.8,210.9,109.3,224.3,124.6c40.3,47.9,46,172.5,11.5,226.2c-42.2,63.3-130.4,97.8-209,82.4c-107.3-21.1-515.7-235.8-665.2-348.9C303.1,757,159.4,561.4,113.3,346.7C86.5,218.3,101.8-243.7,144-542.8c113.1-799.4,419.8-1579.6,912.5-2315.7c297.1-442.8,822.4-1023.7,1090.8-1203.9c513.8-348.9,1203.9-580.8,2032-684.4c371.9-46,1269.1-46,1648.6,0c843.5,103.5,1531.7,341.2,2051.2,705.4c383.4,270.3,924,902.9,1265.2,1479.9c145.7,249.2,350.8,674.8,439,920.2C9801.8-1043.1,9895.7-537,9899.5,59.2c1.9,306.7,0,320.1-51.8,429.4c-82.4,178.3-180.2,291.4-377.6,440.9c-289.5,216.6-705.4,406.4-1236.4,557.8C7994.1,1558.3,7934.6,1564,7867.5,1533.3z M667.4-598.3C930-774.7,1530-1004.8,2070.6-1135.1c904.8-218.5,1761.7-308.6,2933-308.6c983.4,0,1635.2,53.7,2444.2,201.3c764.9,141.8,1537.4,406.4,1907.4,655.6c57.5,38.3,107.3,67.1,111.2,63.3c11.5-13.4-72.8-414.1-132.3-621.1c-105.4-366.1-251.1-718.9-433.3-1048.6c-352.7-638.4-891.4-1286.3-1297.8-1562.3c-548.3-368.1-1363-594.3-2269.7-630.7c-954.7-36.4-1744.5,80.5-2419.2,356.6c-368.1,151.4-623,324-891.4,601.9c-623,646-1121.4,1489.5-1347.6,2279.3c-51.8,176.4-138,567.4-138,617.3C537-512.1,550.4-517.8,667.4-598.3z"/></g></g>
</svg>